<svg id="Ebene_1" data-name="Ebene 1" xmlns="http://www.w3.org/2000/svg" viewBox="0 0 753.58 142.47"><defs><style>.cls-1{fill:#691347;}.cls-2{fill:#b21064;}.cls-3{fill:#3d3d3b;}.cls-4{fill:#70706f;}</style></defs><path class="cls-1" d="M133.13,13.1a29.33,29.33,0,0,0-28.65,37A30.95,30.95,0,0,1,121,51.3a14.84,14.84,0,1,1,24.2,0,30.95,30.95,0,0,1,16.55-1.23,29.3,29.3,0,0,0-28.65-37Z" transform="translate(-1 -11.86)"/><path class="cls-1" d="M99.33,132a14.81,14.81,0,1,1-12.84-22.14c.29,0,.57.07.86.09a34.58,34.58,0,0,1-9.44-13.51,29.58,29.58,0,1,0,28.55,50.06A34.22,34.22,0,0,1,99.33,132Z" transform="translate(-1 -11.86)"/><path class="cls-1" d="M188.13,96.26A34.5,34.5,0,0,1,178.57,110a14.35,14.35,0,0,1,1.47-.15,14.84,14.84,0,1,1-13,21.82,34.13,34.13,0,0,1-7.12,14.69,29.58,29.58,0,1,0,28.22-50.08Z" transform="translate(-1 -11.86)"/><path class="cls-2" d="M185.5,84.07a29.55,29.55,0,0,0-52.37-18.88,29.29,29.29,0,0,0-42.67-2.92A34.32,34.32,0,0,1,78.32,36.18H63.49A48.6,48.6,0,0,0,66.82,53.8c-6.5-2.73-19.17-6.13-35.45-1C5.44,61,1,74.69,1,74.69s19.11,14,41,7.8c18.43-5.22,25.56-15.8,28.21-21.8A50.29,50.29,0,0,0,82.37,74.85a29.16,29.16,0,0,0,23.38,38.42,29.67,29.67,0,1,0,54.76,0A29.6,29.6,0,0,0,185.5,84.07ZM110.43,98.91a14.84,14.84,0,1,1,14.83-14.84A14.83,14.83,0,0,1,110.43,98.91Zm22.7,40.59A14.84,14.84,0,1,1,148,124.66,14.83,14.83,0,0,1,133.13,139.5Zm22.71-40.59a14.84,14.84,0,1,1,14.83-14.84A14.84,14.84,0,0,1,155.84,98.91Z" transform="translate(-1 -11.86)"/><path class="cls-3" d="M229.15,82.38h1.3L260.2,13.16h10.31l29.64,69.22h1.42l31.29-69.22h12.68l-36.74,81H293.27L265.18,29.28,237.32,94.12h-15.4l-36.87-81h12.8Z" transform="translate(-1 -11.86)"/><path class="cls-3" d="M352.53,12.92H370.2l69.58,71.13V12.92h12.08v81.2H433.61l-69-70.53V94.12h-12.1Z" transform="translate(-1 -11.86)"/><path class="cls-3" d="M551.31,70.42q0,12-6.58,17.84t-19.26,5.86H460.4V12.92h62.23q12.45,0,19.08,6T548.35,36q0,12.24-9.13,15.69a16.88,16.88,0,0,1,8.3,5.93Q551.31,62.71,551.31,70.42ZM536.26,36q0-5.59-2.84-8.58-3.43-3.57-10.89-3.57h-50V46.94h50q7.69,0,10.71-2.68T536.26,36ZM472.49,57.85V83.22h52.86q6.87,0,10.37-3.5a12.38,12.38,0,0,0,3.5-9.19,12.34,12.34,0,0,0-3.55-9.12q-3.55-3.55-10.32-3.56Z" transform="translate(-1 -11.86)"/><path class="cls-3" d="M557,12.92h72.78q10.31,0,15.88,7.07t5.57,18.81q0,10.08-3.2,15.07a15.36,15.36,0,0,1-7.23,5.69,18,18,0,0,1,6.88,4.63,14.57,14.57,0,0,1,3.55,10v20H639.14v-20a8,8,0,0,0-3.84-6.73A15.83,15.83,0,0,0,626,64.72H569.09v29.4H557Zm12.09,40.9h55.73c4.42,0,7.65-.75,9.71-2.26q4.61-3.45,4.61-12.74t-4.49-12.61q-3.2-2.38-9.83-2.38H569.09Z" transform="translate(-1 -11.86)"/><path class="cls-3" d="M669.25,53.64q0,22.46,4.86,26.72t30.94,4.28q25.49,0,30.76-3t5.27-18H702V52.75h51.2V63.63q0,20.92-8.53,26.42t-39.59,5.49q-31.53,0-39.71-7.22t-8.18-34.8q0-27.57,8.12-34.62t39.77-7q31.17,0,39.65,4.68t8.47,22.94H741.08q0-11.82-5.69-14.27t-30.34-2.45q-26.32,0-31.06,4.16T669.25,53.64Z" transform="translate(-1 -11.86)"/><path class="cls-4" d="M474.51,101.2,502,144.87l27.45-43.67h14.12v53.13h-7.91v-46h-1.55l-29.67,46h-5l-29.67-46H468.3v46h-7.9V101.2Z" transform="translate(-1 -11.86)"/><path class="cls-4" d="M549.28,101.2h50.8v7.13H557.19v15.52h41.42V131H557.19V147.2h42.89v7.13h-50.8Z" transform="translate(-1 -11.86)"/><path class="cls-4" d="M606,101.2H650.5q9.84,0,13.42,3.65,5.26,5.43,5.27,22.91t-5.27,22.84q-3.57,3.74-13.42,3.73H606Zm7.91,46h36.53c4.3,0,7.17-1.32,8.65-3.93s2.21-7.79,2.21-15.51-.75-12.82-2.25-15.46-4.37-4-8.61-4H613.89Z" transform="translate(-1 -11.86)"/><path class="cls-4" d="M685.63,154.33h-7.91V101.2h7.91Z" transform="translate(-1 -11.86)"/><path class="cls-4" d="M726.66,101.2l27.92,53.13h-8.91l-6.29-11.79H701.53l-6.2,11.79h-8.92l27.92-53.13ZM736,135.41l-14.43-27.85h-2L705.1,135.41Z" transform="translate(-1 -11.86)"/></svg>